<svg width="136" height="122" viewBox="0 0 136 122" fill="none" xmlns="http://www.w3.org/2000/svg">
<g filter="url(#filter0_d_16_312)">
<g clip-path="url(#clip0_16_312)">
<g filter="url(#filter1_d_16_312)">
<rect x="4" y="2" width="128" height="114" rx="8" fill="url(#paint0_linear_16_312)"/>
</g>
<g filter="url(#filter2_d_16_312)">
<path d="M9.66365 69.8228C9.66365 80.579 -19.1947 89.2987 43.9329 89.2987C70.9876 89.2987 78.2021 80.579 78.2021 69.8228C78.2021 59.0665 62.8593 50.3468 43.9329 50.3468C25.0065 50.3468 9.66365 59.0665 9.66365 69.8228Z" fill="#F3DFC8"/>
<path d="M-47.0002 72.605C-47.0002 81.8247 -41.9481 89.2987 -15.004 89.2987C10.2562 89.2987 16.9922 81.8247 16.9922 72.605C16.9922 63.3854 2.66701 55.9114 -15.004 55.9114C-32.675 55.9114 -47.0002 63.3854 -47.0002 72.605Z" fill="#F3DFC8"/>
<path d="M-24.742 64.2582C-24.742 76.5511 -19.2506 86.5164 10.0365 86.5164C37.4932 86.5164 44.8149 76.5511 44.8149 64.2582C44.8149 51.9653 29.2441 42 10.0365 42C-9.17112 42 -24.742 51.9653 -24.742 64.2582Z" fill="#F3DFC8"/>
</g>
<g filter="url(#filter3_d_16_312)">
<path d="M90.3104 72.5758C90.3104 83.3321 64.5456 92.0518 120.906 92.0518C145.061 92.0518 151.502 83.3321 151.502 72.5758C151.502 61.8196 137.804 53.0999 120.906 53.0999C104.009 53.0999 90.3104 61.8196 90.3104 72.5758Z" fill="#F3DFC8"/>
<path d="M39.7208 75.3581C39.7208 84.5777 44.2313 92.0517 68.2872 92.0517C90.8395 92.0517 96.8535 84.5777 96.8535 75.3581C96.8535 66.1384 84.0639 58.6644 68.2872 58.6644C52.5104 58.6644 39.7208 66.1384 39.7208 75.3581Z" fill="#F3DFC8"/>
<path d="M59.5931 67.0112C59.5931 79.3041 64.4958 89.2695 90.6435 89.2695C115.157 89.2695 121.694 79.3041 121.694 67.0112C121.694 54.7184 107.792 44.753 90.6435 44.753C73.4948 44.753 59.5931 54.7184 59.5931 67.0112Z" fill="#F3DFC8"/>
</g>
<g filter="url(#filter4_d_16_312)">
<path d="M25.0188 104.651C25.0188 116.994 50.5609 127 -5.31235 127C-29.258 127 -35.6436 116.994 -35.6436 104.651C-35.6436 92.3075 -22.0638 82.3014 -5.31235 82.3014C11.4391 82.3014 25.0188 92.3075 25.0188 104.651Z" fill="#F3DFC8"/>
<path d="M66.5247 104.651C66.5247 116.994 61.7356 127 36.1935 127C12.2478 127 5.8623 116.994 5.8623 104.651C5.8623 92.3075 19.442 82.3014 36.1935 82.3014C52.945 82.3014 66.5247 92.3075 66.5247 104.651Z" fill="#F3DFC8"/>
<path d="M44.1756 91.8797C44.1756 104.223 39.3864 114.229 13.8444 114.229C-10.1013 114.229 -16.4868 104.223 -16.4868 91.8797C-16.4868 79.5365 -2.90707 69.5304 13.8444 69.5304C30.5958 69.5304 44.1756 79.5365 44.1756 91.8797Z" fill="#F3DFC8"/>
</g>
<g filter="url(#filter5_d_16_312)">
<path d="M111.74 102.586C111.74 114.929 137.282 124.935 81.4083 124.935C57.4627 124.935 51.0771 114.929 51.0771 102.586C51.0771 90.2427 64.6569 80.2366 81.4083 80.2366C98.1598 80.2366 111.74 90.2427 111.74 102.586Z" fill="#F3DFC8"/>
<path d="M153.245 102.586C153.245 114.929 148.456 124.935 122.914 124.935C98.9685 124.935 92.583 114.929 92.583 102.586C92.583 90.2427 106.163 80.2366 122.914 80.2366C139.666 80.2366 153.245 90.2427 153.245 102.586Z" fill="#F3DFC8"/>
<path d="M130.896 89.8149C130.896 102.158 126.107 112.164 100.565 112.164C76.6194 112.164 70.2339 102.158 70.2339 89.8149C70.2339 77.4717 83.8136 67.4656 100.565 67.4656C117.317 67.4656 130.896 77.4717 130.896 89.8149Z" fill="#F3DFC8"/>
</g>
</g>
</g>
<defs>
<filter id="filter0_d_16_312" x="0" y="0" width="136" height="122" filterUnits="userSpaceOnUse" color-interpolation-filters="sRGB">
<feFlood flood-opacity="0" result="BackgroundImageFix"/>
<feColorMatrix in="SourceAlpha" type="matrix" values="0 0 0 0 0 0 0 0 0 0 0 0 0 0 0 0 0 0 127 0" result="hardAlpha"/>
<feOffset dy="2"/>
<feGaussianBlur stdDeviation="2"/>
<feComposite in2="hardAlpha" operator="out"/>
<feColorMatrix type="matrix" values="0 0 0 0 0 0 0 0 0 0 0 0 0 0 0 0 0 0 0.25 0"/>
<feBlend mode="normal" in2="BackgroundImageFix" result="effect1_dropShadow_16_312"/>
<feBlend mode="normal" in="SourceGraphic" in2="effect1_dropShadow_16_312" result="shape"/>
</filter>
<filter id="filter1_d_16_312" x="-1" y="-1" width="138" height="124" filterUnits="userSpaceOnUse" color-interpolation-filters="sRGB">
<feFlood flood-opacity="0" result="BackgroundImageFix"/>
<feColorMatrix in="SourceAlpha" type="matrix" values="0 0 0 0 0 0 0 0 0 0 0 0 0 0 0 0 0 0 127 0" result="hardAlpha"/>
<feMorphology radius="1" operator="dilate" in="SourceAlpha" result="effect1_dropShadow_16_312"/>
<feOffset dy="2"/>
<feGaussianBlur stdDeviation="2"/>
<feComposite in2="hardAlpha" operator="out"/>
<feColorMatrix type="matrix" values="0 0 0 0 0 0 0 0 0 0 0 0 0 0 0 0 0 0 0.25 0"/>
<feBlend mode="normal" in2="BackgroundImageFix" result="effect1_dropShadow_16_312"/>
<feBlend mode="normal" in="SourceGraphic" in2="effect1_dropShadow_16_312" result="shape"/>
</filter>
<filter id="filter2_d_16_312" x="-59.3887" y="30.9879" width="149.979" height="72.076" filterUnits="userSpaceOnUse" color-interpolation-filters="sRGB">
<feFlood flood-opacity="0" result="BackgroundImageFix"/>
<feColorMatrix in="SourceAlpha" type="matrix" values="0 0 0 0 0 0 0 0 0 0 0 0 0 0 0 0 0 0 127 0" result="hardAlpha"/>
<feOffset dy="1.37652"/>
<feGaussianBlur stdDeviation="6.19433"/>
<feComposite in2="hardAlpha" operator="out"/>
<feColorMatrix type="matrix" values="0 0 0 0 0 0 0 0 0 0 0 0 0 0 0 0 0 0 0.25 0"/>
<feBlend mode="normal" in2="BackgroundImageFix" result="effect1_dropShadow_16_312"/>
<feBlend mode="normal" in="SourceGraphic" in2="effect1_dropShadow_16_312" result="shape"/>
</filter>
<filter id="filter3_d_16_312" x="27.332" y="33.7409" width="136.559" height="72.076" filterUnits="userSpaceOnUse" color-interpolation-filters="sRGB">
<feFlood flood-opacity="0" result="BackgroundImageFix"/>
<feColorMatrix in="SourceAlpha" type="matrix" values="0 0 0 0 0 0 0 0 0 0 0 0 0 0 0 0 0 0 127 0" result="hardAlpha"/>
<feOffset dy="1.37652"/>
<feGaussianBlur stdDeviation="6.19433"/>
<feComposite in2="hardAlpha" operator="out"/>
<feColorMatrix type="matrix" values="0 0 0 0 0 0 0 0 0 0 0 0 0 0 0 0 0 0 0.25 0"/>
<feBlend mode="normal" in2="BackgroundImageFix" result="effect1_dropShadow_16_312"/>
<feBlend mode="normal" in="SourceGraphic" in2="effect1_dropShadow_16_312" result="shape"/>
</filter>
<filter id="filter4_d_16_312" x="-48.0322" y="58.5182" width="126.946" height="82.247" filterUnits="userSpaceOnUse" color-interpolation-filters="sRGB">
<feFlood flood-opacity="0" result="BackgroundImageFix"/>
<feColorMatrix in="SourceAlpha" type="matrix" values="0 0 0 0 0 0 0 0 0 0 0 0 0 0 0 0 0 0 127 0" result="hardAlpha"/>
<feOffset dy="1.37652"/>
<feGaussianBlur stdDeviation="6.19433"/>
<feComposite in2="hardAlpha" operator="out"/>
<feColorMatrix type="matrix" values="0 0 0 0 0 0 0 0 0 0 0 0 0 0 0 0 0 0 0.25 0"/>
<feBlend mode="normal" in2="BackgroundImageFix" result="effect1_dropShadow_16_312"/>
<feBlend mode="normal" in="SourceGraphic" in2="effect1_dropShadow_16_312" result="shape"/>
</filter>
<filter id="filter5_d_16_312" x="38.6885" y="56.4534" width="126.946" height="82.2469" filterUnits="userSpaceOnUse" color-interpolation-filters="sRGB">
<feFlood flood-opacity="0" result="BackgroundImageFix"/>
<feColorMatrix in="SourceAlpha" type="matrix" values="0 0 0 0 0 0 0 0 0 0 0 0 0 0 0 0 0 0 127 0" result="hardAlpha"/>
<feOffset dy="1.37652"/>
<feGaussianBlur stdDeviation="6.19433"/>
<feComposite in2="hardAlpha" operator="out"/>
<feColorMatrix type="matrix" values="0 0 0 0 0 0 0 0 0 0 0 0 0 0 0 0 0 0 0.25 0"/>
<feBlend mode="normal" in2="BackgroundImageFix" result="effect1_dropShadow_16_312"/>
<feBlend mode="normal" in="SourceGraphic" in2="effect1_dropShadow_16_312" result="shape"/>
</filter>
<linearGradient id="paint0_linear_16_312" x1="68" y1="-10.2915" x2="68" y2="70.0083" gradientUnits="userSpaceOnUse">
<stop stop-color="#FFE2C0"/>
<stop offset="1" stop-color="#FF9900"/>
</linearGradient>
<clipPath id="clip0_16_312">
<rect x="4" y="2" width="128" height="114" rx="8" fill="white"/>
</clipPath>
</defs>
</svg>
