<svg width="19" height="19" viewBox="0 0 19 19" fill="none" xmlns="http://www.w3.org/2000/svg">
<path d="M9.86751 14.6591C10.2127 14.6591 10.4925 14.3793 10.4925 14.0341V9.03412C10.4925 8.68894 10.2127 8.40912 9.86751 8.40912C9.52234 8.40912 9.24251 8.68894 9.24251 9.03412V14.0341C9.24251 14.3793 9.52234 14.6591 9.86751 14.6591Z" fill="white"/>
<path d="M9.86751 5.70079C10.3277 5.70079 10.7008 6.07388 10.7008 6.53412C10.7008 6.99436 10.3277 7.36745 9.86751 7.36745C9.40728 7.36745 9.03418 6.99436 9.03418 6.53412C9.03418 6.07388 9.40728 5.70079 9.86751 5.70079Z" fill="white"/>
<path fill-rule="evenodd" clip-rule="evenodd" d="M0.90918 9.86745C0.90918 4.9199 4.91996 0.909119 9.86751 0.909119C14.8151 0.909119 18.8258 4.9199 18.8258 9.86745C18.8258 14.815 14.8151 18.8258 9.86751 18.8258C4.91996 18.8258 0.90918 14.815 0.90918 9.86745ZM9.86751 2.15912C5.61032 2.15912 2.15918 5.61026 2.15918 9.86745C2.15918 14.1246 5.61032 17.5758 9.86751 17.5758C14.1247 17.5758 17.5758 14.1246 17.5758 9.86745C17.5758 5.61026 14.1247 2.15912 9.86751 2.15912Z" fill="white"/>
</svg>
